<svg width="20" height="21" viewBox="0 0 20 21" fill="none" xmlns="http://www.w3.org/2000/svg">
<g clip-path="url(#clip0)">
<path d="M14.5455 1.11499H5.45455C2.81865 1.11499 0.681824 3.2611 0.681824 5.90847V15.0389C0.681824 17.6863 2.81865 19.8324 5.45455 19.8324H14.5455C17.1814 19.8324 19.3182 17.6863 19.3182 15.0389V5.90847C19.3182 3.2611 17.1814 1.11499 14.5455 1.11499Z" stroke="white" stroke-width="1.5"/>
<path d="M9.99999 14.3541C12.1338 14.3541 13.8636 12.6168 13.8636 10.4737C13.8636 8.33059 12.1338 6.59326 9.99999 6.59326C7.86616 6.59326 6.13635 8.33059 6.13635 10.4737C6.13635 12.6168 7.86616 14.3541 9.99999 14.3541Z" stroke="white" stroke-width="1.5"/>
<path d="M15.7575 5.90853C16.427 5.90853 16.9696 5.36349 16.9696 4.69114C16.9696 4.0188 16.427 3.47375 15.7575 3.47375C15.0881 3.47375 14.5454 4.0188 14.5454 4.69114C14.5454 5.36349 15.0881 5.90853 15.7575 5.90853Z" fill="white"/>
</g>
<defs>
<clipPath id="clip0">
<rect width="20" height="21" fill="white"/>
</clipPath>
</defs>
</svg>
