<svg width="44" height="19" viewBox="0 0 44 19" fill="none" xmlns="http://www.w3.org/2000/svg">
<path fill-rule="evenodd" clip-rule="evenodd" d="M44 3.31456C34.0878 3.80186 25.7329 4.21253 23.5092 4.32165C23.1541 3.74909 22.7362 3.20595 22.2517 2.70581C19.3468 -0.293158 14.8585 -0.863833 11.3361 1.31816L0.963065 7.74382C0.365718 8.11383 -0.00036611 8.78069 2.74757e-07 9.49997C-0.000354992 10.6777 0.891718 11.2138 0.959006 11.2543L0.962698 11.2565C0.962698 11.2565 6.92267 14.9487 11.3361 17.6825C14.8585 19.8638 19.3468 19.2931 22.2532 16.2926C22.7376 15.7925 23.1556 15.2493 23.5107 14.6768L44 15.684V3.31456ZM13.3777 14.1695L11.4916 13.0012C9.51199 11.775 7.44058 10.492 5.83977 9.49997L13.3777 4.83047C15.3356 3.61783 17.831 3.93542 19.4473 5.60407C21.5279 7.75211 21.5279 11.2478 19.4454 13.3978C17.8313 15.0649 15.3356 15.3821 13.3777 14.1695ZM24.906 10.6436C24.9933 9.88356 24.9933 9.11487 24.9056 8.35447C27.7108 8.21642 33.5564 7.92901 40.5741 7.58427V11.4142L24.906 10.6436Z" fill="url(#paint0_linear)"/>
<defs>
<linearGradient id="paint0_linear" x1="0" y1="19" x2="22" y2="19" gradientUnits="userSpaceOnUse">
<stop stop-color="#038CC8"/>
<stop offset="0.679684" stop-color="#284058"/>
</linearGradient>
</defs>
</svg>
