<svg width="148" height="148" viewBox="0 0 148 148" fill="none" xmlns="http://www.w3.org/2000/svg">
<rect width="148" height="148" rx="15" fill="#121D28"/>
<ellipse cx="40.2276" cy="46" rx="28.2276" ry="28" fill="url(#paint0_linear)"/>
<path d="M81.5609 85.5122C81.5609 97.3931 72.0825 107.024 60.3902 107.024C48.6979 107.024 39.2195 97.3931 39.2195 85.5122C39.2195 73.6313 48.6979 64 60.3902 64C72.0825 64 81.5609 73.6313 81.5609 85.5122Z" fill="url(#paint1_linear)"/>
<ellipse cx="77.0244" cy="114.5" rx="14.6179" ry="14.5" fill="url(#paint2_linear)"/>
<path d="M122.44 35.0502C123.389 31.4255 127.008 29.2671 130.526 30.2288C134.041 31.1874 136.12 34.9073 135.168 38.5339L124.788 78.1299L112.079 74.5618L122.44 35.0502Z" fill="url(#paint3_linear)"/>
<path d="M107.047 74.9205C106.886 75.4698 106.728 76.0161 106.571 76.5594C106.57 76.5635 106.568 76.5674 106.566 76.5713C106.564 76.5756 106.562 76.5799 106.561 76.5847L106.56 76.5886L106.56 76.5927L106.559 76.5953C106.559 76.5953 106.559 76.6023 106.558 76.6059C105.47 80.3705 104.466 83.9809 103.576 87.3393C91.3065 96.5018 94.4731 105.881 97.0242 113.437C99.2122 119.916 100.142 123.45 95.5303 126.613C94.8254 127.096 94.5509 128.005 94.8578 128.799C95.1646 129.594 95.9903 130.095 96.8395 129.985C97.1784 129.942 105.246 128.9 112.855 124.535L112.858 124.533C121.211 119.741 129.942 110.374 124.491 93.0979C125.521 89.1609 126.577 84.8801 127.629 80.4007L107.047 74.9205Z" fill="url(#paint4_linear)"/>
<defs>
<linearGradient id="paint0_linear" x1="18.5141" y1="25.5385" x2="47.4797" y2="74.207" gradientUnits="userSpaceOnUse">
<stop stop-color="#F8F8F8"/>
<stop offset="1" stop-color="#FF0707"/>
</linearGradient>
<linearGradient id="paint1_linear" x1="42.7479" y1="71.1707" x2="60.8462" y2="106.793" gradientUnits="userSpaceOnUse">
<stop stop-color="#F6F6F6"/>
<stop offset="1" stop-color="#26BD00"/>
</linearGradient>
<linearGradient id="paint2_linear" x1="60.4574" y1="102.9" x2="76.8329" y2="129.12" gradientUnits="userSpaceOnUse">
<stop stop-color="#F5F5F5"/>
<stop offset="1" stop-color="#3F5DA9"/>
</linearGradient>
<linearGradient id="paint3_linear" x1="125.954" y1="88.9218" x2="116.348" y2="134.278" gradientUnits="userSpaceOnUse">
<stop offset="0.138542" stop-color="white"/>
<stop offset="0.925" stop-color="#3F5DA9"/>
</linearGradient>
<linearGradient id="paint4_linear" x1="125.954" y1="88.9218" x2="116.348" y2="134.278" gradientUnits="userSpaceOnUse">
<stop offset="0.138542" stop-color="white"/>
<stop offset="0.925" stop-color="#3F5DA9"/>
</linearGradient>
</defs>
</svg>
