<svg width="44" height="19" viewBox="0 0 44 19" fill="none" xmlns="http://www.w3.org/2000/svg">
<path fill-rule="evenodd" clip-rule="evenodd" d="M-1.19209e-06 3.31456C9.91219 3.80186 18.2671 4.21253 20.4908 4.32165C20.8459 3.74909 21.2638 3.20595 21.7483 2.70581C24.6532 -0.293158 29.1415 -0.863833 32.6639 1.31816L43.0369 7.74382C43.6343 8.11383 44.0004 8.78069 44 9.49997C44.0004 10.6777 43.1083 11.2138 43.041 11.2543L43.0373 11.2565C43.0373 11.2565 37.0773 14.9487 32.6639 17.6825C29.1415 19.8638 24.6532 19.2931 21.7468 16.2926C21.2624 15.7925 20.8444 15.2493 20.4893 14.6768L-1.19209e-06 15.684V3.31456ZM30.6223 14.1695L32.5084 13.0012C34.488 11.775 36.5594 10.492 38.1602 9.49997L30.6223 4.83047C28.6644 3.61783 26.169 3.93542 24.5527 5.60407C22.4721 7.75211 22.4721 11.2478 24.5546 13.3978C26.1687 15.0649 28.6644 15.3821 30.6223 14.1695ZM19.094 10.6436C19.0067 9.88357 19.0067 9.11487 19.0944 8.35447C16.2892 8.21642 10.4436 7.92901 3.42595 7.58427V11.4142L19.094 10.6436Z" fill="url(#paint0_linear)"/>
<defs>
<linearGradient id="paint0_linear" x1="44" y1="19" x2="22" y2="19" gradientUnits="userSpaceOnUse">
<stop stop-color="#038CC8"/>
<stop offset="0.679684" stop-color="#284058"/>
</linearGradient>
</defs>
</svg>
