<svg width="20" height="18" viewBox="0 0 20 18" fill="none" xmlns="http://www.w3.org/2000/svg">
<g clip-path="url(#clip0)">
<path fill-rule="evenodd" clip-rule="evenodd" d="M6.29 17.3913C13.837 17.3913 17.965 10.6996 17.965 4.89724C17.965 4.70676 17.965 4.51734 17.953 4.32899C18.756 3.7083 19.449 2.93779 20 2.05597C19.252 2.41127 18.457 2.64456 17.644 2.7473C18.5 2.19831 19.141 1.33576 19.448 0.318046C18.642 0.82958 17.761 1.19022 16.842 1.38393C15.288 -0.383977 12.689 -0.469589 11.036 1.19343C9.971 2.26573 9.518 3.86455 9.849 5.38951C6.55 5.21186 3.476 3.54456 1.392 0.801756C0.303 2.8083 0.86 5.37453 2.663 6.66299C2.01 6.64266 1.371 6.45431 0.8 6.11401V6.16965C0.801 8.25966 2.178 10.0597 4.092 10.4738C3.488 10.6504 2.854 10.6761 2.24 10.5487C2.777 12.338 4.318 13.5634 6.073 13.5986C4.62 14.8207 2.825 15.4843 0.977 15.4821C0.651 15.4811 0.325 15.4607 0 15.419C1.877 16.7075 4.06 17.3913 6.29 17.3881" fill="white"/>
</g>
<defs>
<clipPath id="clip0">
<rect width="20" height="17.3913" fill="white"/>
</clipPath>
</defs>
</svg>
