<svg width="175" height="46" viewBox="0 0 175 46" fill="none" xmlns="http://www.w3.org/2000/svg">
<path d="M173.89 1.1091C172.41 -0.3697 170.012 -0.3697 168.534 1.1091L152.413 17.2247L157.736 22.6135L173.89 6.46263C175.37 4.98383 175.37 2.58593 173.89 1.1091Z" fill="url(#paint0_linear)"/>
<path fill-rule="evenodd" clip-rule="evenodd" d="M155.946 23.3048L151.796 19.1021L148.658 22.2365C144.911 22.1146 143.865 24.1554 142.891 26.0558C142.06 27.6771 141.282 29.1963 138.923 29.1827C145.234 35.9247 153.816 31.4274 153.026 26.2192L155.946 23.3048ZM150.363 28.678C149.381 29.5991 144.997 31.6533 142.417 29.6619C142.417 29.6619 143.315 28.9529 143.996 27.5291C145.62 23.1615 149.668 23.8076 149.668 23.8076L151.059 25.2C151.073 25.2118 152.097 27.048 150.363 28.678Z" fill="url(#paint1_linear)"/>
<path fill-rule="evenodd" clip-rule="evenodd" d="M7.31551 28.471H10.0541C11.0553 28.471 11.9597 28.3272 12.7674 28.0397C13.5751 27.7522 14.265 27.3506 14.8371 26.8347C15.4008 26.3274 15.8341 25.7228 16.137 25.021C16.4483 24.3191 16.604 23.5539 16.604 22.7252C16.604 21.8373 16.4483 21.0298 16.137 20.3026C15.8341 19.5754 15.4008 18.9496 14.8371 18.4254C14.265 17.9096 13.5751 17.5079 12.7674 17.2204C11.9597 16.9244 11.0553 16.7765 10.0541 16.7765H3.76923V35.2441H7.31551V28.471ZM7.31551 25.579V19.6684H10.0541C10.5589 19.6684 10.9964 19.7487 11.3666 19.9094C11.7368 20.07 12.0481 20.2899 12.3005 20.5689C12.5445 20.848 12.7254 21.1735 12.8432 21.5456C12.9694 21.9176 13.0325 22.3193 13.0325 22.7506C13.0325 23.1226 12.9694 23.482 12.8432 23.8287C12.7254 24.1669 12.5445 24.4671 12.3005 24.7292C12.0481 24.9914 11.7368 25.1985 11.3666 25.3507C10.9964 25.5029 10.5589 25.579 10.0541 25.579H7.31551Z" fill="url(#paint2_linear)"/>
<path fill-rule="evenodd" clip-rule="evenodd" d="M26.0039 35.2441H28.9697V35.0644C28.8224 34.7755 28.7102 34.4302 28.6331 34.0286C28.556 33.6269 28.5174 33.1196 28.5174 32.5065V27.6021C28.5174 26.9397 28.3947 26.3584 28.1493 25.8581C27.9039 25.3507 27.5639 24.9315 27.1292 24.6003C26.6945 24.2691 26.1792 24.0189 25.5832 23.8498C24.9943 23.6807 24.3563 23.5961 23.6692 23.5961C22.9049 23.5961 22.2249 23.6948 21.6289 23.8921C21.04 24.0824 20.5422 24.3431 20.1355 24.6743C19.7219 25.0055 19.4064 25.3895 19.189 25.8264C18.9787 26.2633 18.8735 26.7248 18.8735 27.211H21.7972C21.7972 27.0067 21.8252 26.8199 21.8813 26.6508C21.9444 26.4817 22.0391 26.3373 22.1653 26.2175C22.3055 26.0836 22.4878 25.9814 22.7121 25.9109C22.9365 25.8334 23.2029 25.7947 23.5114 25.7947C23.862 25.7947 24.167 25.8405 24.4264 25.9321C24.6928 26.0166 24.9137 26.14 25.0889 26.302C25.2572 26.457 25.3834 26.6438 25.4676 26.8622C25.5517 27.0736 25.5938 27.3132 25.5938 27.581V28.2574H23.9636C23.1223 28.2574 22.3756 28.335 21.7236 28.49C21.0785 28.638 20.5352 28.8564 20.0935 29.1453C19.6027 29.4624 19.2346 29.8676 18.9892 30.3608C18.7438 30.8471 18.6211 31.4073 18.6211 32.0415C18.6211 32.5347 18.7193 32.9927 18.9156 33.4155C19.1119 33.8313 19.3853 34.1907 19.7359 34.4937C20.0864 34.7967 20.5036 35.0327 20.9874 35.2018C21.4782 35.371 22.0145 35.4555 22.5965 35.4555C22.954 35.4555 23.2871 35.4203 23.5956 35.3498C23.904 35.2864 24.188 35.1948 24.4474 35.075C24.6998 34.9623 24.9312 34.8284 25.1415 34.6733C25.3519 34.5183 25.5377 34.3527 25.6989 34.1766C25.734 34.3809 25.776 34.5747 25.8251 34.7579C25.8742 34.9411 25.9338 35.1032 26.0039 35.2441ZM23.2169 33.183C22.9435 33.183 22.7016 33.1513 22.4913 33.0879C22.288 33.0174 22.1162 32.9258 21.976 32.8131C21.8357 32.6933 21.7271 32.5488 21.6499 32.3797C21.5798 32.2035 21.5448 32.0133 21.5448 31.8089C21.5448 31.5482 21.5939 31.3086 21.692 31.0902C21.7902 30.8647 21.9409 30.6709 22.1442 30.5088C22.3476 30.3538 22.6105 30.234 22.933 30.1495C23.2555 30.0578 23.6446 30.012 24.1004 30.012H25.5938V31.978C25.5096 32.126 25.3939 32.274 25.2467 32.422C25.0995 32.5629 24.9242 32.6897 24.7209 32.8025C24.5175 32.9152 24.2897 33.0068 24.0373 33.0773C23.7849 33.1478 23.5114 33.183 23.2169 33.183Z" fill="url(#paint3_linear)"/>
<path d="M32.6085 23.8075V26.2069H35.8477V32.8553H32.6085V35.2441H41.8843V32.8553H38.8029V23.8075H32.6085Z" fill="url(#paint4_linear)"/>
<path d="M35.753 21.5139C35.6759 21.3166 35.6373 21.1052 35.6373 20.8797C35.6373 20.6542 35.6759 20.4463 35.753 20.2561C35.8371 20.0588 35.9528 19.8896 36.1001 19.7487C36.2473 19.6148 36.4226 19.5091 36.6259 19.4316C36.8362 19.3541 37.0676 19.3153 37.32 19.3153C37.8388 19.3153 38.249 19.4633 38.5505 19.7593C38.859 20.0482 39.0132 20.4217 39.0132 20.8797C39.0132 21.3377 38.859 21.7147 38.5505 22.0107C38.249 22.2996 37.8388 22.444 37.32 22.444C37.0676 22.444 36.8362 22.4053 36.6259 22.3278C36.4226 22.2502 36.2473 22.141 36.1001 22.0001C35.9528 21.8662 35.8371 21.7041 35.753 21.5139Z" fill="url(#paint5_linear)"/>
<path d="M47.7001 35.2441H44.7659V23.8075H47.4162L47.595 25.393C47.7422 25.1816 47.9034 24.9878 48.0787 24.8117C48.254 24.6355 48.4398 24.477 48.6361 24.336C48.9727 24.0964 49.3407 23.9132 49.7404 23.7864C50.14 23.6596 50.5642 23.5961 51.0129 23.5961C51.5878 23.5961 52.1137 23.6807 52.5904 23.8498C53.0672 24.0189 53.4809 24.2867 53.8314 24.6531C54.175 25.0266 54.4414 25.5058 54.6307 26.0906C54.827 26.6684 54.9252 27.3731 54.9252 28.2046V35.2441H52.0015V28.2469C52.0015 27.7959 51.9489 27.4259 51.8438 27.137C51.7456 26.8411 51.6019 26.6085 51.4126 26.4394C51.2233 26.2703 50.9954 26.154 50.729 26.0906C50.4625 26.0202 50.1611 25.9849 49.8245 25.9849C49.5441 25.9849 49.2847 26.0166 49.0463 26.0801C48.8149 26.1435 48.6081 26.2386 48.4258 26.3654C48.2785 26.457 48.1453 26.5663 48.0261 26.6931C47.907 26.8199 47.7983 26.9609 47.7001 27.1159V35.2441Z" fill="url(#paint6_linear)"/>
<path d="M60.1415 21.0065H63.0652V23.8075H67.314V25.9744H63.0652V30.8893C63.0652 31.3051 63.1108 31.6539 63.2019 31.9358C63.3001 32.2106 63.4368 32.429 63.6121 32.5911C63.7874 32.7602 63.9977 32.88 64.2431 32.9505C64.4955 33.0209 64.7759 33.0562 65.0844 33.0562C65.3088 33.0562 65.5367 33.0456 65.768 33.0244C66.0064 33.0033 66.2343 32.9751 66.4516 32.9399C66.662 32.9117 66.8583 32.88 67.0406 32.8448C67.2299 32.8095 67.3911 32.7743 67.5243 32.7391L67.8083 34.7579C67.605 34.8777 67.3666 34.9834 67.0932 35.075C66.8197 35.1596 66.5287 35.23 66.2203 35.2864C65.9118 35.3428 65.5892 35.3851 65.2527 35.4132C64.9232 35.4485 64.5972 35.4661 64.2746 35.4661C63.6506 35.4661 63.0827 35.3851 62.5709 35.223C62.0661 35.0539 61.6349 34.7931 61.2773 34.4408C60.9128 34.0955 60.6323 33.6551 60.436 33.1196C60.2397 32.577 60.1415 31.9287 60.1415 31.1747V25.9744H57.5439V23.8075H60.1415V21.0065Z" fill="url(#paint7_linear)"/>
<path fill-rule="evenodd" clip-rule="evenodd" d="M80.8912 29.4201V29.6421C80.8912 30.1917 80.8527 30.7132 80.7755 31.2064C80.6984 31.6926 80.5862 32.1436 80.439 32.5594C80.2777 33.0174 80.0639 33.4332 79.7975 33.8066C79.5381 34.1801 79.2296 34.4901 78.872 34.7368C78.5495 34.9693 78.1849 35.1455 77.7783 35.2653C77.3786 35.3921 76.9369 35.4555 76.4531 35.4555C76.0114 35.4555 75.6083 35.3991 75.2437 35.2864C74.8861 35.1807 74.5636 35.0222 74.2761 34.8108C74.1219 34.7051 73.9782 34.5888 73.845 34.4619C73.7117 34.3281 73.5855 34.1836 73.4663 34.0286L73.3296 35.2441H70.7004V19.0088H73.6241V24.8434C73.7643 24.6813 73.9151 24.5333 74.0763 24.3995C74.2376 24.2585 74.4094 24.1387 74.5917 24.0401C74.8511 23.8921 75.1315 23.7829 75.433 23.7124C75.7415 23.6349 76.0745 23.5961 76.4321 23.5961C76.9229 23.5961 77.3716 23.6596 77.7783 23.7864C78.1919 23.9132 78.56 24.0964 78.8825 24.336C79.1419 24.5192 79.3768 24.7412 79.5871 25.0019C79.7975 25.2556 79.9833 25.5339 80.1445 25.837C80.3969 26.3232 80.5827 26.8693 80.7019 27.4753C80.8281 28.0813 80.8912 28.7296 80.8912 29.4201ZM77.9676 29.6421V29.4201C77.9676 29.1171 77.9535 28.8247 77.9255 28.5428C77.8974 28.261 77.8519 27.9967 77.7888 27.7501C77.7116 27.4612 77.61 27.204 77.4838 26.9785C77.3646 26.746 77.1823 26.5346 76.9369 26.3443C76.7756 26.2245 76.5934 26.1364 76.39 26.0801C76.1867 26.0166 75.9553 25.9849 75.6959 25.9849C75.3454 25.9849 75.0369 26.0343 74.7704 26.1329C74.504 26.2316 74.2761 26.376 74.0868 26.5663C73.9957 26.6579 73.9116 26.7636 73.8344 26.8834C73.7573 26.9961 73.6872 27.1194 73.6241 27.2533V31.8089C73.7082 31.9851 73.8029 32.1472 73.9081 32.2951C74.0202 32.4361 74.1499 32.5594 74.2972 32.6651C74.4725 32.799 74.6758 32.9011 74.9072 32.9716C75.1455 33.0421 75.4155 33.0773 75.7169 33.0773C75.9764 33.0773 76.2112 33.0456 76.4216 32.9822C76.6319 32.9188 76.8142 32.8307 76.9685 32.7179C77.1858 32.5629 77.3611 32.3621 77.4943 32.1154C77.6345 31.8618 77.7397 31.5764 77.8098 31.2593C77.8659 31.0267 77.9044 30.7731 77.9255 30.4983C77.9535 30.2234 77.9676 29.9381 77.9676 29.6421Z" fill="url(#paint8_linear)"/>
<path d="M89.6307 24.1563C90.2757 23.7829 90.9804 23.5961 91.7446 23.5961C92.1863 23.5961 92.5929 23.6278 92.9645 23.6913C93.3432 23.7476 93.6481 23.8111 93.8795 23.8815L93.4483 26.8094C93.0627 26.7178 92.6666 26.6508 92.2599 26.6085C91.8603 26.5592 91.4782 26.5346 91.1136 26.5346C90.735 26.5346 90.3914 26.5698 90.0829 26.6403C89.7815 26.7037 89.5115 26.8023 89.2731 26.9362C88.9857 27.0912 88.7403 27.2885 88.537 27.5281C88.3336 27.7677 88.1654 28.0496 88.0322 28.3737V35.2441H85.1085V23.8075H87.8323L87.948 25.4247L87.9691 25.6784C88.4318 25.0301 88.9857 24.5228 89.6307 24.1563Z" fill="url(#paint9_linear)"/>
<path d="M106.584 35.2441H103.934L103.765 33.6375C103.38 34.2083 102.913 34.6557 102.367 34.9799C101.827 35.304 101.234 35.4661 100.589 35.4661C100 35.4661 99.4604 35.3745 98.9697 35.1913C98.4789 35.0081 98.0582 34.7156 97.7076 34.314C97.3571 33.9194 97.0836 33.4155 96.8873 32.8025C96.698 32.1824 96.6034 31.439 96.6034 30.5722V23.8075H99.527V30.5934C99.527 31.0585 99.5586 31.4495 99.6217 31.7666C99.6918 32.0837 99.8005 32.3374 99.9477 32.5277C100.095 32.725 100.288 32.8659 100.526 32.9505C100.765 33.035 101.055 33.0773 101.399 33.0773C101.708 33.0773 101.984 33.0456 102.23 32.9822C102.482 32.9188 102.703 32.8271 102.892 32.7074C103.054 32.6017 103.197 32.4748 103.324 32.3268C103.45 32.1789 103.559 32.0133 103.65 31.8301V23.8075H106.584V35.2441Z" fill="url(#paint10_linear)"/>
<path d="M116.648 32.5911C116.74 32.4431 116.785 32.281 116.785 32.1049C116.785 31.9287 116.743 31.7737 116.659 31.6398C116.582 31.5059 116.442 31.3791 116.238 31.2593C116.028 31.1465 115.751 31.0408 115.407 30.9422C115.064 30.8435 114.629 30.7449 114.103 30.6462C113.437 30.5123 112.827 30.3468 112.273 30.1495C111.727 29.9451 111.257 29.6985 110.864 29.4096C110.472 29.1277 110.163 28.8 109.939 28.4266C109.721 28.0531 109.613 27.6233 109.613 27.137C109.613 26.6649 109.725 26.2139 109.949 25.7841C110.174 25.3543 110.496 24.9773 110.917 24.6531C111.337 24.329 111.849 24.0718 112.452 23.8815C113.055 23.6913 113.735 23.5961 114.492 23.5961C115.285 23.5961 115.996 23.6913 116.627 23.8815C117.258 24.0647 117.795 24.3184 118.236 24.6426C118.671 24.9737 119.004 25.3648 119.236 25.8158C119.467 26.2668 119.583 26.7565 119.583 27.285H116.659C116.659 27.0948 116.627 26.9186 116.564 26.7565C116.501 26.5874 116.407 26.4359 116.28 26.302C116.105 26.1259 115.867 25.9849 115.565 25.8792C115.271 25.7735 114.913 25.7207 114.492 25.7207C114.135 25.7207 113.823 25.7559 113.556 25.8264C113.29 25.8968 113.073 25.9955 112.904 26.1223C112.75 26.2351 112.631 26.369 112.547 26.524C112.47 26.672 112.431 26.8305 112.431 26.9996C112.431 27.1688 112.466 27.3273 112.536 27.4753C112.606 27.6162 112.733 27.743 112.915 27.8558C113.09 27.9756 113.332 28.0848 113.641 28.1835C113.949 28.2751 114.342 28.3561 114.819 28.4266C115.506 28.5393 116.144 28.6838 116.733 28.8599C117.322 29.0361 117.83 29.2616 118.258 29.5364C118.685 29.8183 119.018 30.16 119.257 30.5617C119.502 30.9563 119.625 31.4284 119.625 31.978C119.625 32.4854 119.502 32.954 119.257 33.3838C119.018 33.8066 118.678 34.173 118.236 34.4831C117.788 34.7931 117.248 35.0362 116.617 35.2124C115.986 35.3815 115.281 35.4661 114.503 35.4661C113.648 35.4661 112.89 35.3533 112.231 35.1278C111.579 34.9024 111.032 34.6064 110.591 34.24C110.149 33.8806 109.813 33.4719 109.581 33.0139C109.357 32.5488 109.245 32.0837 109.245 31.6187H112.032C112.053 31.9287 112.137 32.1965 112.284 32.422C112.431 32.6404 112.62 32.8166 112.852 32.9505C113.083 33.0914 113.346 33.1936 113.641 33.257C113.942 33.3204 114.251 33.3521 114.566 33.3521C114.945 33.3521 115.274 33.3204 115.555 33.257C115.842 33.1865 116.077 33.0949 116.259 32.9822C116.435 32.8694 116.564 32.7391 116.648 32.5911Z" fill="url(#paint11_linear)"/>
<path d="M125.304 19.0088V25.3824C125.451 25.164 125.612 24.9632 125.788 24.78C125.97 24.5897 126.159 24.4241 126.355 24.2832C126.657 24.0647 126.99 23.8956 127.355 23.7758C127.719 23.656 128.105 23.5961 128.511 23.5961C129.107 23.5961 129.654 23.6877 130.152 23.871C130.65 24.0471 131.078 24.3255 131.435 24.706C131.793 25.0865 132.07 25.5762 132.266 26.1752C132.469 26.7671 132.571 27.4823 132.571 28.3209V35.2441H129.647V28.2997C129.647 27.891 129.595 27.5387 129.489 27.2427C129.391 26.9468 129.248 26.7072 129.058 26.524C128.869 26.3408 128.641 26.2069 128.375 26.1223C128.108 26.0307 127.807 25.9849 127.47 25.9849C127.211 25.9849 126.969 26.0096 126.745 26.0589C126.52 26.1082 126.317 26.1822 126.135 26.2809C125.966 26.3654 125.812 26.4676 125.672 26.5874C125.539 26.7072 125.416 26.8411 125.304 26.9891V35.2441H122.38V19.0088H125.304Z" fill="url(#paint12_linear)"/>
<path d="M140.343 33.2909C142.271 34.0792 143.199 36.2893 142.415 38.2273C141.787 39.7771 140.799 42.1643 138.099 43.8362C135.603 45.3817 132.175 46 127.468 46H3.76923C1.68754 46 0 44.304 0 42.2118C0 40.1196 1.68754 38.4235 3.76923 38.4235H127.468C131.758 38.4235 133.461 37.8094 134.145 37.3857C134.625 37.0885 134.866 36.7698 135.432 35.3727C136.216 33.4347 138.415 32.5027 140.343 33.2909Z" fill="url(#paint13_linear)"/>
<defs>
<linearGradient id="paint0_linear" x1="8.61538" y1="46" x2="142.692" y2="46" gradientUnits="userSpaceOnUse">
<stop stop-color="#F3F3F3"/>
<stop offset="1" stop-color="#0588C3"/>
</linearGradient>
<linearGradient id="paint1_linear" x1="8.61538" y1="46" x2="142.692" y2="46" gradientUnits="userSpaceOnUse">
<stop stop-color="#F3F3F3"/>
<stop offset="1" stop-color="#0588C3"/>
</linearGradient>
<linearGradient id="paint2_linear" x1="8.61538" y1="46" x2="142.692" y2="46" gradientUnits="userSpaceOnUse">
<stop stop-color="#F3F3F3"/>
<stop offset="1" stop-color="#0588C3"/>
</linearGradient>
<linearGradient id="paint3_linear" x1="8.61538" y1="46" x2="142.692" y2="46" gradientUnits="userSpaceOnUse">
<stop stop-color="#F3F3F3"/>
<stop offset="1" stop-color="#0588C3"/>
</linearGradient>
<linearGradient id="paint4_linear" x1="8.61538" y1="46" x2="142.692" y2="46" gradientUnits="userSpaceOnUse">
<stop stop-color="#F3F3F3"/>
<stop offset="1" stop-color="#0588C3"/>
</linearGradient>
<linearGradient id="paint5_linear" x1="8.61538" y1="46" x2="142.692" y2="46" gradientUnits="userSpaceOnUse">
<stop stop-color="#F3F3F3"/>
<stop offset="1" stop-color="#0588C3"/>
</linearGradient>
<linearGradient id="paint6_linear" x1="8.61538" y1="46" x2="142.692" y2="46" gradientUnits="userSpaceOnUse">
<stop stop-color="#F3F3F3"/>
<stop offset="1" stop-color="#0588C3"/>
</linearGradient>
<linearGradient id="paint7_linear" x1="8.61538" y1="46" x2="142.692" y2="46" gradientUnits="userSpaceOnUse">
<stop stop-color="#F3F3F3"/>
<stop offset="1" stop-color="#0588C3"/>
</linearGradient>
<linearGradient id="paint8_linear" x1="8.61538" y1="46" x2="142.692" y2="46" gradientUnits="userSpaceOnUse">
<stop stop-color="#F3F3F3"/>
<stop offset="1" stop-color="#0588C3"/>
</linearGradient>
<linearGradient id="paint9_linear" x1="8.61538" y1="46" x2="142.692" y2="46" gradientUnits="userSpaceOnUse">
<stop stop-color="#F3F3F3"/>
<stop offset="1" stop-color="#0588C3"/>
</linearGradient>
<linearGradient id="paint10_linear" x1="8.61538" y1="46" x2="142.692" y2="46" gradientUnits="userSpaceOnUse">
<stop stop-color="#F3F3F3"/>
<stop offset="1" stop-color="#0588C3"/>
</linearGradient>
<linearGradient id="paint11_linear" x1="8.61538" y1="46" x2="142.692" y2="46" gradientUnits="userSpaceOnUse">
<stop stop-color="#F3F3F3"/>
<stop offset="1" stop-color="#0588C3"/>
</linearGradient>
<linearGradient id="paint12_linear" x1="8.61538" y1="46" x2="142.692" y2="46" gradientUnits="userSpaceOnUse">
<stop stop-color="#F3F3F3"/>
<stop offset="1" stop-color="#0588C3"/>
</linearGradient>
<linearGradient id="paint13_linear" x1="8.61538" y1="46" x2="142.692" y2="46" gradientUnits="userSpaceOnUse">
<stop stop-color="#F3F3F3"/>
<stop offset="1" stop-color="#0588C3"/>
</linearGradient>
</defs>
</svg>
