<?xml version="1.0" encoding="utf-8"?>
<!-- Generator: Adobe Illustrator 24.3.0, SVG Export Plug-In . SVG Version: 6.00 Build 0)  -->
<svg version="1.1" id="Layer_1" xmlns="http://www.w3.org/2000/svg" xmlns:xlink="http://www.w3.org/1999/xlink" x="0px" y="0px"
	 viewBox="0 0 250 165" style="enable-background:new 0 0 250 165;" xml:space="preserve">
<style type="text/css">
	.st0{fill:#D3D3D3;}
</style>
<g>
	<path class="st0" d="M101.6,161.3V77.6c0-2,1.6-3.7,3.6-3.7h43.5c2,0,3.6,1.6,3.6,3.7v83.7c0,2-1.6,3.7-3.6,3.7h-43.5
		C103.3,165,101.6,163.4,101.6,161.3z"/>
	<path class="st0" d="M189.6,98.2l59.5-60c1.8-1.8,0.5-4.9-2-4.9l-40.2,0.2c-0.8,0-1.5,0.3-2,0.8l-53.6,54c-0.5,0.5-0.8,1.3-0.8,2
		l-0.1,17.6c0,0.4-0.2,0.8-0.6,1.1l-3.8,2.3c-1.6,1-1.9,3.2-0.5,4.5l4.6,4.6c0.2,0.2,0.4,0.6,0.4,0.9l0,10.9c0,3-0.4,5.9,1.7,3.8
		l5.8-5.9c0.5-0.5,1.3-0.5,1.7,0l33.6,33.9c0.5,0.5,1.3,0.9,2,0.9h51.9c2.5,0,3.8-3.1,2-4.9l-59.5-60
		C189.2,99.5,189.2,98.7,189.6,98.2z"/>
	<ellipse class="st0" cx="127" cy="28.8" rx="28.6" ry="28.8"/>
	<path class="st0" d="M109.8,97.7L47,34.3c-0.7-0.7-1.5-1-2.5-1h-0.2h-13H3.5c-1.9,0-3.5,1.6-3.5,3.5v124.7c0,1.9,1.6,3.5,3.5,3.5
		h39c1.9,0,3.5-1.6,3.5-3.5V115c0-1.7,2-2.5,3.2-1.3l22.5,22.7c1.4,1.4,3.6,1.4,4.9,0l33.3-33.6C111.2,101.3,111.2,99.1,109.8,97.7z
		"/>
</g>
</svg>
