<svg width="337" height="96" viewBox="0 0 337 96" fill="none" xmlns="http://www.w3.org/2000/svg">
<g clip-path="url(#clip0)">
<path d="M289.614 54.0633L281.907 46.2974L276.078 52.0892C263.184 51.6718 267.515 64.979 258 64.9246C269.72 77.3826 285.658 69.0724 284.192 59.4486L289.614 54.0633ZM279.245 63.992C277.422 65.6939 269.28 69.4897 264.488 65.81C264.488 65.81 266.156 64.5 267.421 61.8691C270.436 53.7984 277.955 54.9923 277.955 54.9923L280.538 57.5652C280.564 57.5869 282.466 60.98 279.245 63.992Z" fill="url(#paint0_linear)"/>
<path d="M322.938 13.0494C320.19 10.3169 315.737 10.3169 312.991 13.0494L283.053 42.8282L292.939 52.7859L322.938 22.9418C325.687 20.2092 325.687 15.7784 322.938 13.0494Z" fill="#121D28"/>
</g>
<path d="M16.0781 63.4844H21.1641C23.0234 63.4844 24.7031 63.2188 26.2031 62.6875C27.7031 62.1562 28.9844 61.4141 30.0469 60.4609C31.0938 59.5234 31.8984 58.4062 32.4609 57.1094C33.0391 55.8125 33.3281 54.3984 33.3281 52.8672C33.3281 51.2266 33.0391 49.7344 32.4609 48.3906C31.8984 47.0469 31.0938 45.8906 30.0469 44.9219C28.9844 43.9688 27.7031 43.2266 26.2031 42.6953C24.7031 42.1484 23.0234 41.875 21.1641 41.875H9.49219V76H16.0781V63.4844ZM16.0781 58.1406V47.2188H21.1641C22.1016 47.2188 22.9141 47.3672 23.6016 47.6641C24.2891 47.9609 24.8672 48.3672 25.3359 48.8828C25.7891 49.3984 26.125 50 26.3438 50.6875C26.5781 51.375 26.6953 52.1172 26.6953 52.9141C26.6953 53.6016 26.5781 54.2656 26.3438 54.9062C26.125 55.5312 25.7891 56.0859 25.3359 56.5703C24.8672 57.0547 24.2891 57.4375 23.6016 57.7188C22.9141 58 22.1016 58.1406 21.1641 58.1406H16.0781ZM50.7852 76H56.293V75.668C56.0195 75.1341 55.8112 74.4961 55.668 73.7539C55.5247 73.0117 55.4531 72.0742 55.4531 70.9414V61.8789C55.4531 60.6549 55.2253 59.5807 54.7695 58.6562C54.3138 57.7188 53.6823 56.944 52.875 56.332C52.0677 55.7201 51.1107 55.2578 50.0039 54.9453C48.9102 54.6328 47.7253 54.4766 46.4492 54.4766C45.0299 54.4766 43.7669 54.6589 42.6602 55.0234C41.5664 55.375 40.6419 55.8568 39.8867 56.4688C39.1185 57.0807 38.5326 57.7904 38.1289 58.5977C37.7383 59.4049 37.543 60.2578 37.543 61.1562H42.9727C42.9727 60.7786 43.0247 60.4336 43.1289 60.1211C43.2461 59.8086 43.4219 59.5417 43.6562 59.3203C43.9167 59.0729 44.2552 58.8841 44.6719 58.7539C45.0885 58.6107 45.5833 58.5391 46.1562 58.5391C46.8073 58.5391 47.3737 58.6237 47.8555 58.793C48.3503 58.9492 48.7604 59.1771 49.0859 59.4766C49.3984 59.763 49.6328 60.1081 49.7891 60.5117C49.9453 60.9023 50.0234 61.3451 50.0234 61.8398V63.0898H46.9961C45.4336 63.0898 44.0469 63.2331 42.8359 63.5195C41.638 63.793 40.6289 64.1966 39.8086 64.7305C38.8971 65.3164 38.2135 66.0651 37.7578 66.9766C37.3021 67.875 37.0742 68.9102 37.0742 70.082C37.0742 70.9935 37.2565 71.8398 37.6211 72.6211C37.9857 73.3893 38.4935 74.0534 39.1445 74.6133C39.7956 75.1732 40.5703 75.6094 41.4688 75.9219C42.3802 76.2344 43.3763 76.3906 44.457 76.3906C45.1211 76.3906 45.7396 76.3255 46.3125 76.1953C46.8854 76.0781 47.4128 75.9089 47.8945 75.6875C48.3633 75.4792 48.793 75.2318 49.1836 74.9453C49.5742 74.6589 49.9193 74.3529 50.2188 74.0273C50.2839 74.4049 50.362 74.763 50.4531 75.1016C50.5443 75.4401 50.6549 75.7396 50.7852 76ZM45.6094 72.1914C45.1016 72.1914 44.6523 72.1328 44.2617 72.0156C43.8841 71.8854 43.5651 71.7161 43.3047 71.5078C43.0443 71.2865 42.8424 71.0195 42.6992 70.707C42.569 70.3815 42.5039 70.0299 42.5039 69.6523C42.5039 69.1706 42.5951 68.7279 42.7773 68.3242C42.9596 67.9076 43.2396 67.5495 43.6172 67.25C43.9948 66.9635 44.4831 66.7422 45.082 66.5859C45.681 66.4167 46.4036 66.332 47.25 66.332H50.0234V69.9648C49.8672 70.2383 49.6523 70.5117 49.3789 70.7852C49.1055 71.0456 48.7799 71.2799 48.4023 71.4883C48.0247 71.6966 47.6016 71.8659 47.1328 71.9961C46.6641 72.1263 46.1562 72.1914 45.6094 72.1914ZM63.0508 54.8672V59.3008H69.0664V71.5859H63.0508V76H80.2773V71.5859H74.5547V54.8672H63.0508ZM68.6758 49.457C68.6758 49.8737 68.7474 50.2643 68.8906 50.6289C69.0469 50.9805 69.2617 51.2799 69.5352 51.5273C69.8086 51.7878 70.1341 51.9896 70.5117 52.1328C70.9023 52.276 71.332 52.3477 71.8008 52.3477C72.7643 52.3477 73.526 52.0807 74.0859 51.5469C74.6589 51 74.9453 50.3034 74.9453 49.457C74.9453 48.6107 74.6589 47.9206 74.0859 47.3867C73.526 46.8398 72.7643 46.5664 71.8008 46.5664C71.332 46.5664 70.9023 46.638 70.5117 46.7812C70.1341 46.9245 69.8086 47.1198 69.5352 47.3672C69.2617 47.6276 69.0469 47.9401 68.8906 48.3047C68.7474 48.6562 68.6758 49.0404 68.6758 49.457ZM85.6289 76H91.0781V60.9805C91.2604 60.694 91.4622 60.4336 91.6836 60.1992C91.9049 59.9648 92.1523 59.763 92.4258 59.5938C92.7643 59.3594 93.1484 59.1836 93.5781 59.0664C94.0208 58.9492 94.5026 58.8906 95.0234 58.8906C95.6484 58.8906 96.2083 58.9557 96.7031 59.0859C97.1979 59.2031 97.6211 59.418 97.9727 59.7305C98.3242 60.043 98.5911 60.4727 98.7734 61.0195C98.9688 61.5534 99.0664 62.237 99.0664 63.0703V76H104.496V62.9922C104.496 61.4557 104.314 60.1536 103.949 59.0859C103.598 58.0052 103.103 57.1198 102.465 56.4297C101.814 55.7526 101.046 55.2578 100.16 54.9453C99.2747 54.6328 98.2982 54.4766 97.2305 54.4766C96.3971 54.4766 95.6094 54.5938 94.8672 54.8281C94.125 55.0625 93.4414 55.401 92.8164 55.8438C92.4518 56.1042 92.1068 56.3971 91.7812 56.7227C91.4557 57.0482 91.1562 57.4062 90.8828 57.7969L90.5508 54.8672H85.6289V76ZM119.613 49.6914H114.184V54.8672H109.359V58.8711H114.184V68.4805C114.184 69.8737 114.366 71.0716 114.73 72.0742C115.095 73.0638 115.616 73.8776 116.293 74.5156C116.957 75.1667 117.758 75.6484 118.695 75.9609C119.646 76.2604 120.701 76.4102 121.859 76.4102C122.458 76.4102 123.064 76.3776 123.676 76.3125C124.301 76.2604 124.9 76.1823 125.473 76.0781C126.046 75.974 126.586 75.8438 127.094 75.6875C127.602 75.5182 128.044 75.3229 128.422 75.1016L127.895 71.3711C127.647 71.4362 127.348 71.5013 126.996 71.5664C126.658 71.6315 126.293 71.6901 125.902 71.7422C125.499 71.8073 125.076 71.8594 124.633 71.8984C124.203 71.9375 123.78 71.957 123.363 71.957C122.79 71.957 122.27 71.8919 121.801 71.7617C121.345 71.6315 120.954 71.4102 120.629 71.0977C120.303 70.7982 120.049 70.3945 119.867 69.8867C119.698 69.3659 119.613 68.7214 119.613 67.9531V58.8711H127.504V54.8672H119.613V49.6914ZM152.719 65.6484V65.2383C152.719 63.9622 152.602 62.7643 152.367 61.6445C152.146 60.5247 151.801 59.5156 151.332 58.6172C151.033 58.0573 150.688 57.543 150.297 57.0742C149.906 56.5924 149.47 56.1823 148.988 55.8438C148.389 55.401 147.706 55.0625 146.938 54.8281C146.182 54.5938 145.349 54.4766 144.438 54.4766C143.773 54.4766 143.155 54.5482 142.582 54.6914C142.022 54.8216 141.501 55.0234 141.02 55.2969C140.681 55.4792 140.362 55.7005 140.062 55.9609C139.763 56.2083 139.483 56.4818 139.223 56.7812V46H133.793V76H138.676L138.93 73.7539C139.151 74.0404 139.385 74.3073 139.633 74.5547C139.88 74.7891 140.147 75.0039 140.434 75.1992C140.967 75.5898 141.566 75.8828 142.23 76.0781C142.908 76.2865 143.656 76.3906 144.477 76.3906C145.375 76.3906 146.195 76.2734 146.938 76.0391C147.693 75.8177 148.37 75.4922 148.969 75.0625C149.633 74.6068 150.206 74.0339 150.688 73.3438C151.182 72.6536 151.579 71.8854 151.879 71.0391C152.152 70.2708 152.361 69.4375 152.504 68.5391C152.647 67.6276 152.719 66.6641 152.719 65.6484ZM147.289 65.2383V65.6484C147.289 66.1953 147.263 66.7227 147.211 67.2305C147.172 67.7383 147.1 68.207 146.996 68.6367C146.866 69.2227 146.671 69.75 146.41 70.2188C146.163 70.6745 145.837 71.0456 145.434 71.332C145.147 71.5404 144.809 71.7031 144.418 71.8203C144.027 71.9375 143.591 71.9961 143.109 71.9961C142.549 71.9961 142.048 71.931 141.605 71.8008C141.176 71.6706 140.798 71.4818 140.473 71.2344C140.199 71.0391 139.958 70.8112 139.75 70.5508C139.555 70.2773 139.379 69.9779 139.223 69.6523V61.2344C139.34 60.987 139.47 60.7591 139.613 60.5508C139.757 60.3294 139.913 60.1341 140.082 59.9648C140.434 59.6133 140.857 59.3464 141.352 59.1641C141.846 58.9818 142.419 58.8906 143.07 58.8906C143.552 58.8906 143.982 58.9492 144.359 59.0664C144.737 59.1706 145.076 59.3333 145.375 59.5547C145.831 59.9062 146.169 60.2969 146.391 60.7266C146.625 61.1432 146.814 61.6185 146.957 62.1523C147.074 62.6081 147.159 63.0964 147.211 63.6172C147.263 64.138 147.289 64.6784 147.289 65.2383ZM172.875 54.4766C171.456 54.4766 170.147 54.8216 168.949 55.5117C167.751 56.1888 166.723 57.1263 165.863 58.3242L165.824 57.8555L165.609 54.8672H160.551V76H165.98V63.3047C166.228 62.7057 166.54 62.1849 166.918 61.7422C167.296 61.2995 167.751 60.9349 168.285 60.6484C168.728 60.401 169.229 60.2188 169.789 60.1016C170.362 59.9714 171 59.9062 171.703 59.9062C172.38 59.9062 173.09 59.9518 173.832 60.043C174.587 60.1211 175.323 60.2448 176.039 60.4141L176.84 55.0039C176.41 54.8737 175.844 54.7565 175.141 54.6523C174.451 54.5352 173.695 54.4766 172.875 54.4766ZM195.512 76H200.434V54.8672H194.984V69.6914C194.815 70.0299 194.613 70.3359 194.379 70.6094C194.145 70.8828 193.878 71.1172 193.578 71.3125C193.227 71.5339 192.816 71.7031 192.348 71.8203C191.892 71.9375 191.378 71.9961 190.805 71.9961C190.167 71.9961 189.626 71.918 189.184 71.7617C188.741 71.6055 188.383 71.3451 188.109 70.9805C187.836 70.6289 187.634 70.1602 187.504 69.5742C187.387 68.9883 187.328 68.2656 187.328 67.4062V54.8672H181.898V67.3672C181.898 68.9688 182.074 70.3424 182.426 71.4883C182.79 72.6211 183.298 73.5521 183.949 74.2812C184.6 75.0234 185.382 75.5638 186.293 75.9023C187.204 76.2409 188.207 76.4102 189.301 76.4102C190.499 76.4102 191.599 76.1107 192.602 75.5117C193.617 74.9128 194.483 74.0859 195.199 73.0312L195.512 76ZM219.379 70.1992C219.379 70.5247 219.294 70.8242 219.125 71.0977C218.969 71.3711 218.728 71.612 218.402 71.8203C218.064 72.0286 217.628 72.1979 217.094 72.3281C216.573 72.4453 215.961 72.5039 215.258 72.5039C214.672 72.5039 214.099 72.4453 213.539 72.3281C212.992 72.2109 212.504 72.0221 212.074 71.7617C211.645 71.5143 211.293 71.1888 211.02 70.7852C210.746 70.3685 210.59 69.8737 210.551 69.3008H205.375C205.375 70.1602 205.583 71.0195 206 71.8789C206.43 72.7253 207.055 73.4805 207.875 74.1445C208.695 74.8216 209.711 75.3685 210.922 75.7852C212.146 76.2018 213.552 76.4102 215.141 76.4102C216.586 76.4102 217.895 76.2539 219.066 75.9414C220.238 75.6159 221.241 75.1667 222.074 74.5938C222.895 74.0208 223.526 73.3438 223.969 72.5625C224.424 71.7682 224.652 70.9023 224.652 69.9648C224.652 68.9492 224.424 68.0768 223.969 67.3477C223.526 66.6055 222.908 65.974 222.113 65.4531C221.319 64.9453 220.375 64.5286 219.281 64.2031C218.188 63.8776 217.003 63.6107 215.727 63.4023C214.841 63.2721 214.112 63.1224 213.539 62.9531C212.966 62.7708 212.517 62.569 212.191 62.3477C211.853 62.1393 211.618 61.9049 211.488 61.6445C211.358 61.3711 211.293 61.0781 211.293 60.7656C211.293 60.4531 211.365 60.1602 211.508 59.8867C211.664 59.6003 211.885 59.3529 212.172 59.1445C212.484 58.9102 212.888 58.7279 213.383 58.5977C213.878 58.4674 214.457 58.4023 215.121 58.4023C215.902 58.4023 216.566 58.5 217.113 58.6953C217.673 58.8906 218.116 59.151 218.441 59.4766C218.676 59.724 218.852 60.0039 218.969 60.3164C219.086 60.6159 219.145 60.9414 219.145 61.293H224.574C224.574 60.3164 224.359 59.4115 223.93 58.5781C223.5 57.7448 222.882 57.0221 222.074 56.4102C221.254 55.8112 220.258 55.3424 219.086 55.0039C217.914 54.6523 216.592 54.4766 215.121 54.4766C213.715 54.4766 212.452 54.6523 211.332 55.0039C210.212 55.3555 209.262 55.8307 208.48 56.4297C207.699 57.0286 207.1 57.7253 206.684 58.5195C206.267 59.3138 206.059 60.1471 206.059 61.0195C206.059 61.918 206.26 62.7122 206.664 63.4023C207.081 64.0924 207.654 64.6979 208.383 65.2188C209.112 65.7526 209.984 66.2083 211 66.5859C212.029 66.9505 213.161 67.2565 214.398 67.5039C215.375 67.6862 216.182 67.8685 216.82 68.0508C217.458 68.2331 217.973 68.4284 218.363 68.6367C218.741 68.8581 219.001 69.0924 219.145 69.3398C219.301 69.5872 219.379 69.8737 219.379 70.1992ZM235.199 57.7773V46H229.77V76H235.199V60.7461C235.408 60.4727 235.635 60.2253 235.883 60.0039C236.143 59.7826 236.43 59.5938 236.742 59.4375C237.081 59.2552 237.458 59.1185 237.875 59.0273C238.292 58.9362 238.741 58.8906 239.223 58.8906C239.848 58.8906 240.408 58.9753 240.902 59.1445C241.397 59.3008 241.82 59.5482 242.172 59.8867C242.523 60.2253 242.79 60.668 242.973 61.2148C243.168 61.7617 243.266 62.4128 243.266 63.168V76H248.695V63.207C248.695 61.6576 248.507 60.3359 248.129 59.2422C247.764 58.1354 247.25 57.2305 246.586 56.5273C245.922 55.8242 245.128 55.3099 244.203 54.9844C243.279 54.6458 242.263 54.4766 241.156 54.4766C240.401 54.4766 239.685 54.5872 239.008 54.8086C238.331 55.0299 237.712 55.3424 237.152 55.7461C236.788 56.0065 236.436 56.3125 236.098 56.6641C235.772 57.0026 235.473 57.3737 235.199 57.7773Z" fill="#121D28"/>
<path d="M7 89C58.9739 89 110.948 89 162.922 89C180.022 89 197.122 89 214.222 89C220.619 89 228.023 89 236.726 89C253.435 89 255.785 84.4454 258 79" stroke="url(#paint1_linear)" stroke-width="14" stroke-linecap="round"/>
<defs>
<linearGradient id="paint0_linear" x1="258.24" y1="58.7548" x2="289.855" y2="58.7548" gradientUnits="userSpaceOnUse">
<stop stop-color="#0099D7"/>
<stop offset="0.00326685" stop-color="#0098D6"/>
<stop offset="0.2023" stop-color="#125384"/>
<stop offset="0.3773" stop-color="#15264D"/>
<stop offset="0.5218" stop-color="#0E0628"/>
<stop offset="0.6306" stop-color="#05000F"/>
<stop offset="0.691"/>
</linearGradient>
<linearGradient id="paint1_linear" x1="132.5" y1="79" x2="132.5" y2="89" gradientUnits="userSpaceOnUse">
<stop offset="0.409375" stop-color="#038CC8"/>
<stop offset="1" stop-color="#121D28"/>
</linearGradient>
<clipPath id="clip0">
<rect width="79" height="71" fill="white" transform="translate(258)"/>
</clipPath>
</defs>
</svg>
