<svg width="1440" height="84" viewBox="0 0 1440 84" fill="none" xmlns="http://www.w3.org/2000/svg">
<path opacity="0.2" d="M0 4.56223C24.3218 4.40124 49.296 1.03057 73.5604 2.27527C80.5673 2.63472 90.7593 4.0846 96.5944 7.86561C121.242 23.8368 146.815 46.9625 175.108 55.6375C194.07 61.4512 216.716 59.8289 234.303 51.3177C248.381 44.5049 261.827 41.5662 276.409 36.5796C301.3 28.0673 328.411 16.2237 355.17 21.7144C366.203 23.9783 375.63 30.0354 386.873 32.1327C396.341 33.8988 402.435 39.325 410.155 44.711C418.847 50.7748 428.098 51.2258 438.142 52.8424C462.016 56.6845 478.861 62.1676 502.663 53.7317C523.179 46.4604 544.415 41.6441 564.954 34.4197C586.109 26.9783 606.555 33.0757 624.025 45.7274C654.614 67.88 692.963 74.2004 729.659 65.8018C748.48 61.4944 764.459 46.6778 783.406 40.6453C798.825 35.7358 812.739 29.7168 829.226 33.0221C848.25 36.8359 860.204 45.8793 873.808 59.4491C888.438 74.0416 900.909 78.4325 921.115 79.5235C954.205 81.3103 982.41 41.1818 1017.46 53.6047C1032.32 58.8709 1043.2 73.1309 1058.58 78.253C1094.89 90.3505 1126.98 70.823 1157.03 52.8424C1171.16 44.3825 1198.23 28.809 1215.6 35.6902C1237.53 44.3735 1256.86 60.5131 1279.63 67.3264C1290.81 70.6724 1309 70.5975 1319.75 66.1829C1327.94 62.8222 1338.45 50.3013 1346.38 50.3013C1375.33 50.3013 1410.87 93.5058 1440 68.5969" stroke="#0142E7" stroke-width="3" stroke-linecap="round"/>
</svg>
