<svg width="1440" height="185" viewBox="0 0 1440 185" fill="none" xmlns="http://www.w3.org/2000/svg">
<path d="M0 149.169C27.2499 121.573 50.6216 125.154 85.4794 121.04C104.26 118.824 132.133 134.115 149.589 143.931C173.27 157.247 189.459 176.001 218.447 169.344C246.26 162.957 275.587 150.743 298.447 133.262C313.456 121.784 342.384 122.907 356.347 135.395C372.447 149.796 387.446 168.553 410.959 152.661C436.373 135.484 459.468 112.052 478.539 150.721C487.368 168.623 505.991 173.571 523.105 170.12C545.289 165.646 571.743 165.507 591.598 152.855C616.267 137.134 647.182 173.677 669.224 182.535C677.562 185.886 694.41 170.13 701.005 166.628C719.441 156.837 737.773 147.543 755.982 137.335C775.739 126.26 770.691 140.683 785.753 149.945C802.214 160.067 817.592 149.489 833.607 139.469C841.446 134.565 868.362 112.902 876.347 114.444C909.644 120.874 920.967 77.5108 948.676 66.9163C966.837 59.9721 982.862 95.5516 1004.57 87.8674C1025.68 80.3916 1032.35 54.2343 1049.13 41.5034C1066.97 27.9741 1089.06 30.1269 1107.21 40.1455C1140.13 58.3049 1159.1 74.996 1186.12 50.5169C1196.77 40.8676 1208.51 27.6521 1222.28 22.7761C1227.82 20.8148 1233.44 28.6418 1237.99 30.9238C1262.9 43.4161 1298.88 3.51305 1324.2 2.01902C1341.61 0.991694 1349.45 41.9327 1361.1 39.4594C1379.06 35.644 1386.18 4.5356 1408.77 8.22676C1419.26 9.94145 1429.2 15.0165 1440 15.0165" stroke="#2F01E7" stroke-opacity="0.3" stroke-width="3" stroke-linecap="round"/>
</svg>
