<svg width="1440" height="57" viewBox="0 0 1440 57" fill="none" xmlns="http://www.w3.org/2000/svg">
<path d="M0 54.7804C11.146 50.3059 23.2579 47.9332 34.7826 44.6952C47.5621 41.1047 61.5584 35.9713 74.5652 34.1409C100.98 30.4237 137.49 16.1448 162.174 29.8019C188.502 44.3685 217.51 46.7025 246.63 48.4478C267.443 49.6953 286.049 45.9767 306.739 44.3434C330.209 42.4906 346.576 39.5746 367.826 28.2774C398.595 11.9198 434.117 1.65364 468.696 2.00894C497.16 2.3014 516.11 26.174 542.174 34.61C553.322 38.2182 563.538 42.1153 575.217 42.1153C585.51 42.1153 592.709 37.4561 602.391 34.8445C611.603 32.36 615.096 22.1637 623.37 19.0131C634.323 14.8423 645.141 8.73987 656.957 8.34151C681.398 7.51746 701.999 17.366 724.783 24.2902C739.191 28.669 753.554 30.1447 768.478 31.0919C780.256 31.8393 792.123 32.8636 803.913 33.2028C816.725 33.5714 825.723 27.241 837.609 23.4693C869.873 13.2314 910.099 9.81252 943.261 13.6187C955.42 15.0142 967.7 20.4822 978.044 27.4565C989.477 35.1662 999.906 46.0668 1014.35 47.0406C1036.21 48.5148 1063.04 34.0061 1081.09 21.9448C1090.71 15.5132 1108.2 2.8802 1120 10.2178C1142.89 24.4506 1163.75 36.0231 1191.3 35.5482C1212.62 35.1807 1233.66 30.1274 1254.57 26.1666C1266.91 23.8268 1281.98 19.5128 1294.57 21.9448C1315.63 26.016 1330.86 45.2747 1350.65 52.2005C1366.15 57.6241 1381.51 54.7514 1395.87 47.1579C1402.53 43.6365 1407.71 37.6011 1414.35 34.2582C1417.47 32.6871 1420.94 32.7465 1423.91 30.7401C1426.12 29.251 1436.52 31.561 1440 31.561" stroke="#E70101" stroke-opacity="0.3" stroke-width="3" stroke-linecap="round"/>
</svg>
