<svg width="1440" height="85" viewBox="0 0 1440 85" fill="none" xmlns="http://www.w3.org/2000/svg">
<path opacity="0.2" d="M0 46.6767C22.2858 38.7516 49.2486 23.0465 73.5901 30.9114C88.6599 35.7805 107.596 41.384 120.924 50.2082C134.111 58.9381 152.76 61.7251 167.889 65.5951C183.897 69.6899 202.925 65.2025 217.442 57.7755C239.743 46.3666 272.395 23.261 296.333 45.7939C307.454 56.2619 318.931 62.9367 332.82 69.2526C358.371 80.8718 378.483 61.9389 399.137 49.4514C407.285 44.5252 416.354 42.8855 425.023 39.3616C432.846 36.1821 438.766 29.693 447.211 27.8845C468.099 23.4112 486.797 46.9327 503.297 56.6404C539.39 77.8743 565.906 49.4163 600.308 40.1184C611.468 37.1021 626.058 32.3911 635.809 39.9922C644.886 47.0683 653.409 57.76 663.297 63.3249C669.223 66.6597 676.692 61.3996 681.418 58.0277C692.343 50.2319 703.116 43.2213 714.946 36.8392C741.63 22.4435 753.798 37.9002 776.086 54.3702C786.831 62.3104 797.334 78.6657 812.573 75.6849C834.879 71.3218 851.631 49.6311 873.22 42.1363C880.546 39.5933 884.536 40.3316 891.341 44.5326C909.776 55.9151 929.454 69.1572 951.618 59.7935C966.247 53.6131 977.69 32.2032 995.254 39.6139C1014.64 47.7922 1025.38 70.1891 1046.53 74.4237C1062.31 77.5826 1080.39 55.8735 1087.21 43.1453C1092.6 33.0821 1096.68 24.1728 1096.09 12.6237C1095.87 8.37032 1084.5 11.1166 1095.84 5.81304C1112.32 -1.89724 1137.95 2.52055 1151.56 15.1461C1165.5 28.0833 1169 47.2219 1175.47 64.3339C1179.7 75.513 1193.81 76.3357 1203.82 76.1894C1220.52 75.9452 1216.09 63.0109 1227 55.7575C1243.4 44.8484 1265.73 43.1139 1284.56 41.6318C1295.99 40.7324 1310.87 38.184 1321.42 44.6588C1337.41 54.4756 1346.87 78.7875 1366.78 70.64C1379.58 65.4016 1392.24 52.5352 1406.22 60.298C1417.95 66.8026 1428.52 75.953 1440 83" stroke="#E75401" stroke-width="3" stroke-linecap="round"/>
</svg>
